<svg xmlns="http://www.w3.org/2000/svg" viewBox="0 0 222.04 220.52"><defs><style>.cls-1{fill: #fbfbfd;}.cls-1,.cls-2{fill-rule:evenodd;}.cls-2{fill:#404041;}.cls-3{font-size:30px;fill:#404041;font-family:Montserrat-Medium, Montserrat;font-weight:500;}</style></defs><g id="Layer_2" data-name="Layer 2"><g id="Layer_1-2" data-name="Layer 1"><path class="cls-1" d="M112.61,0C97.08-.31,87.85,23.86,88.26,43.07c.63,29,12.19,31.59,18.17,42.4,1.18,3,.91,15.71-.05,31.79,1.5-.42,3-.86,4.47-1.3L114,115c-.23-15,0-26.57,1.28-29.39C121.72,75.1,133.38,73,135.18,44c1.19-19.19-7.05-43.71-22.57-44ZM102.29,168.53c-1.33,14.11-2.63,26.26-3.44,32.68a19.44,19.44,0,0,0,5.73,16.06,20.27,20.27,0,0,0,3.55,3.25,20.16,20.16,0,0,0,3.67-3.1,19.4,19.4,0,0,0,6.38-15.82c-.59-7-1.5-20.9-2.31-36.69-1.17.31-2.34.62-3.5.9-2.83.68-5.65,1.48-8.45,2.26Z"/><path class="cls-1" d="M68.34,127.82c-8.65-23.88-15.72-45.09-15.27-49.2.76-8.79,4.15-12.35,6.07-13.72.57-.39,1.73-1.74,1.1-3.13C58.1,56,45.93,24.19,41.24,11.91l-2,.69,10,40.05a.82.82,0,0,1-.31.87L34.42,14.21l-2.07.7L42.2,54.79a.83.83,0,0,1-.22.81L27.68,16.48l-2.09.71,9.7,39.73a.78.78,0,0,1-.31.84l-14.09-39-2.16.73C22,33.6,29.16,64.61,30.51,70.26a3.36,3.36,0,0,0,2.74,2.11,16.65,16.65,0,0,1,8.91,3.39,24.23,24.23,0,0,1,3.51,3.61c2.7,3.2,8.78,25.24,15,50.26Q64.53,128.78,68.34,127.82Z"/><path class="cls-1" d="M96.25,201c-2.13-5.24-6.17-15.48-11-27.89-4.48,1.14-9,2.23-13.49,3.23,2.9,12.7,5.21,23.21,6.35,28.66a19.48,19.48,0,0,0,7.72,11.6,19.79,19.79,0,0,0,7.21,3.91A19.54,19.54,0,0,0,96.25,201Z"/><path class="cls-1" d="M193.74,23c3.22,15.79-5.15,54.32-19.49,78.47-5.88.66-11.72,1.63-17.31,2.71l-1.93.38c9.75-39.06,24.7-78.42,26.39-85.29,2.19-9.08,10.4-5.66,12.34,3.73ZM151.82,155.21c-5.52,19.63-10.85,40.67-13,50.78a19.23,19.23,0,0,1-13.39,14s0,0,0-.05c-.52.21-1.06.4-1.6.57a19.07,19.07,0,0,1-2.93-19.14c2.42-5.8,8.65-22.08,16-42.36C141.78,157.67,146.79,156.38,151.82,155.21Z"/><path class="cls-1" d="M23.35,127.54a54,54,0,0,1,34.14-7.29C41,112.61,11,112.8,2.21,119.61l.48,2.13a12.39,12.39,0,0,0,2.67,5.48c5.85,6.85,19.54,7.33,31.77,6.17A44.51,44.51,0,0,0,23.35,127.54Z"/><path class="cls-1" d="M198.27,157.69A54,54,0,0,1,164.11,165c16.55,7.67,46.74,7.45,55.38.58l-.52-1.87a15.29,15.29,0,0,0-3.38-6.26c-6.6-7.28-20.56-8.14-33.35-7.13A44.14,44.14,0,0,0,198.27,157.69Z"/><path class="cls-1" d="M221.62,162.94c-9.2-33.17-90.16-4.39-109.86.36C92.46,168,9,196.32,1.09,162.72,1.3,149.17.77,135.86,0,122.35c6.9,30.75,85.61,2.92,102.62-1.39,19.83-5,112.55-37.55,119,.55Z"/><path class="cls-2" d="M150,157.82c-5.12,18.33-10,37.51-12,46.91A18.54,18.54,0,0,1,126,218a18.47,18.47,0,0,0,8.57-11.64c2.07-9.52,7-29.05,12.19-47.58Z"/><path class="cls-2" d="M192.19,25.28c2.36,15.56-7.1,51.52-19.19,75.9-.88.09-1.85.13-2.73.24,12.61-26.92,31.11-85.3,13.22-83.81C186.62,13.72,190.65,17.8,192.19,25.28Z"/><path class="cls-2" d="M109.16,218.48a17.16,17.16,0,0,0,7.64-12.13c1.1-8.29-2.08-24.11-2.06-39-.72.29-1.44.57-2.17.83l.39-.14c.31,6.72,2.92,28.07,2.3,37.07S110.67,216.49,109.16,218.48Z"/><path class="cls-2" d="M111.29,2.34c14.15,4.73,18.65,25.2,17.7,42.76C127.45,73.74,118.38,73,112.87,83.45c-1.06,2.78-2.11,16.52-1.92,31.25l2.1-.75c-.15-13.8.46-26.62,1.47-29.28,1.92-7,14.29-9.82,17.33-32.94C133.72,37.51,130.11,1.89,111.29,2.34Z"/><path class="cls-2" d="M59.11,61.61c.14.19-1.28,1.17-4.73,6.75s-2.49,13.09-1.84,15.17l13.61,43.89s-1.68.56-1.68.5S50.26,84.6,50.08,79.82a26,26,0,0,1,2.7-12.77,33.58,33.58,0,0,1,3.7-5.75L40.18,13.18l.66-.23C42.65,17.8,59,61.41,59.11,61.61Z"/><path class="cls-2" d="M92.26,218.25c3.33-2.82,4.75-7.64,3.89-12.46-1.23-7-7.27-19.06-11.84-31.47l-1.39.41c3.66,9,9.64,23.09,11.33,30C96.43,213.66,93.15,216.19,92.26,218.25Z"/><text class="cls-3" transform="translate(25.35 169.94) rotate(-6.22)">M</text><text class="cls-3" transform="translate(55.29 166.1) rotate(-13.19)">E</text><text class="cls-3" transform="translate(75.24 161.39) rotate(-16.05)">N</text><text class="cls-3" transform="translate(98.77 154.72) rotate(-16.18)">U</text><text class="cls-3" transform="translate(121.51 148.12) rotate(-15.61)"> </text><text class="cls-3" transform="translate(129.13 145.88) rotate(-14.02)">K</text><text class="cls-3" transform="translate(149.87 140.8) rotate(-11.61)">I</text><text class="cls-3" transform="translate(158.59 138.69) rotate(-7.69)">N</text><text class="cls-3" transform="translate(181.88 135.21) rotate(2.89)">G</text></g></g></svg>
