<?xml version="1.0"?>
<svg xmlns="http://www.w3.org/2000/svg" fill="white" width="512" height="512" viewBox="0 0 512 512"><g><path d="M487.86,360.38A232.026,232.026,0,0,0,288,138.19V120a8,8,0,0,0-8-8H232a8,8,0,0,0-8,8v18.19A232.026,232.026,0,0,0,24.14,360.38,20,20,0,0,0,28,400H484a20,20,0,0,0,3.86-39.62ZM240,128h32v8.55q-7.95-.54-16-.55t-16,.55ZM103.27,215.26a214.365,214.365,0,0,1,129.49-62.02c.05,0,.09-.01.13-.01a217.717,217.717,0,0,1,46.22,0c.04,0,.08.01.13.01A216.007,216.007,0,0,1,471.84,360H40.16A214.478,214.478,0,0,1,103.27,215.26ZM484,384H28a4,4,0,0,1,0-8H484a4,4,0,0,1,0,8Z"/><path d="M85.68,278.925a8,8,0,0,0,10.931-2.919A183.926,183.926,0,0,1,256,184a8,8,0,0,0,0-16A199.93,199.93,0,0,0,82.761,267.994,8,8,0,0,0,85.68,278.925Z"/></g></svg>
